<mxfile host="Electron" agent="Mozilla/5.0 (Windows NT 10.0; Win64; x64) AppleWebKit/537.36 (KHTML, like Gecko) draw.io/28.0.6 Chrome/138.0.7204.100 Electron/37.2.3 Safari/537.36" version="28.0.6">
  <diagram name="Page-1" id="0rfWOfyjAOf733A-oJOd">
    <mxGraphModel dx="2253" dy="841" grid="1" gridSize="10" guides="1" tooltips="1" connect="1" arrows="1" fold="1" page="1" pageScale="1" pageWidth="827" pageHeight="1169" math="0" shadow="0">
      <root>
        <mxCell id="0" />
        <mxCell id="1" parent="0" />
        <mxCell id="DFUxsc5QTGZJCr-Tzfbp-10" value="" style="rounded=0;whiteSpace=wrap;html=1;strokeColor=none;" vertex="1" parent="1">
          <mxGeometry x="-190" y="30" width="1060" height="850" as="geometry" />
        </mxCell>
        <mxCell id="DFUxsc5QTGZJCr-Tzfbp-3" value="Client Device" style="rounded=0;whiteSpace=wrap;html=1;verticalAlign=top;fontSize=18;fillColor=#f5f5f5;fontColor=#333333;strokeColor=none;" vertex="1" parent="1">
          <mxGeometry x="210" y="40" width="650" height="830" as="geometry" />
        </mxCell>
        <mxCell id="DFUxsc5QTGZJCr-Tzfbp-2" value="Host Device" style="rounded=0;whiteSpace=wrap;html=1;verticalAlign=top;fontSize=18;fillColor=#f5f5f5;fontColor=#333333;strokeColor=none;" vertex="1" parent="1">
          <mxGeometry x="-30" y="40" width="230" height="830" as="geometry" />
        </mxCell>
        <mxCell id="DFUxsc5QTGZJCr-Tzfbp-1" value="Lightship" style="rounded=0;whiteSpace=wrap;html=1;verticalAlign=top;fontSize=18;fillColor=#f5f5f5;fontColor=#333333;strokeColor=none;" vertex="1" parent="1">
          <mxGeometry x="-180" y="40" width="140" height="830" as="geometry" />
        </mxCell>
        <mxCell id="uIkM0Dpdz_mQOi9VMkWr-1" value="Session Manager" style="shape=umlLifeline;perimeter=lifelinePerimeter;whiteSpace=wrap;html=1;container=1;dropTarget=0;collapsible=0;recursiveResize=0;outlineConnect=0;portConstraint=eastwest;newEdgeStyle={&quot;curved&quot;:0,&quot;rounded&quot;:0};fontSize=18;size=50;fillColor=#d5e8d4;strokeColor=#82b366;" parent="1" vertex="1">
          <mxGeometry x="40" y="80" width="140" height="780" as="geometry" />
        </mxCell>
        <mxCell id="uIkM0Dpdz_mQOi9VMkWr-6" value="Room" style="shape=umlLifeline;perimeter=lifelinePerimeter;whiteSpace=wrap;html=1;container=1;dropTarget=0;collapsible=0;recursiveResize=0;outlineConnect=0;portConstraint=eastwest;newEdgeStyle={&quot;curved&quot;:0,&quot;rounded&quot;:0};fontSize=18;fillColor=#dae8fc;strokeColor=#6c8ebf;" parent="1" vertex="1">
          <mxGeometry x="-160" y="140" width="100" height="720" as="geometry" />
        </mxCell>
        <mxCell id="uIkM0Dpdz_mQOi9VMkWr-22" value="" style="endArrow=classic;html=1;rounded=0;snapToPoint=0;" parent="1" edge="1">
          <mxGeometry relative="1" as="geometry">
            <mxPoint x="110" y="160" as="sourcePoint" />
            <mxPoint x="-60" y="161" as="targetPoint" />
          </mxGeometry>
        </mxCell>
        <mxCell id="uIkM0Dpdz_mQOi9VMkWr-23" value="Create a Room" style="edgeLabel;resizable=0;html=1;;align=center;verticalAlign=middle;fontSize=18;labelBackgroundColor=none;" parent="uIkM0Dpdz_mQOi9VMkWr-22" connectable="0" vertex="1">
          <mxGeometry relative="1" as="geometry">
            <mxPoint x="-15" y="-10" as="offset" />
          </mxGeometry>
        </mxCell>
        <mxCell id="uIkM0Dpdz_mQOi9VMkWr-27" value="" style="endArrow=classic;html=1;rounded=0;snapToPoint=0;" parent="1" target="uIkM0Dpdz_mQOi9VMkWr-6" edge="1">
          <mxGeometry relative="1" as="geometry">
            <mxPoint x="110" y="220" as="sourcePoint" />
            <mxPoint x="439" y="221" as="targetPoint" />
          </mxGeometry>
        </mxCell>
        <mxCell id="uIkM0Dpdz_mQOi9VMkWr-28" value="Set Tracking Image" style="edgeLabel;resizable=0;html=1;;align=center;verticalAlign=middle;fontSize=18;labelBackgroundColor=none;" parent="uIkM0Dpdz_mQOi9VMkWr-27" connectable="0" vertex="1">
          <mxGeometry relative="1" as="geometry">
            <mxPoint x="-20" y="-10" as="offset" />
          </mxGeometry>
        </mxCell>
        <mxCell id="uIkM0Dpdz_mQOi9VMkWr-29" value="" style="endArrow=classic;html=1;rounded=0;snapToPoint=0;" parent="1" target="uIkM0Dpdz_mQOi9VMkWr-6" edge="1">
          <mxGeometry relative="1" as="geometry">
            <mxPoint x="110" y="270" as="sourcePoint" />
            <mxPoint x="490" y="270" as="targetPoint" />
          </mxGeometry>
        </mxCell>
        <mxCell id="uIkM0Dpdz_mQOi9VMkWr-30" value="Set Session Goals" style="edgeLabel;resizable=0;html=1;;align=center;verticalAlign=middle;fontSize=18;labelBackgroundColor=none;" parent="uIkM0Dpdz_mQOi9VMkWr-29" connectable="0" vertex="1">
          <mxGeometry relative="1" as="geometry">
            <mxPoint x="-20" y="-10" as="offset" />
          </mxGeometry>
        </mxCell>
        <mxCell id="uIkM0Dpdz_mQOi9VMkWr-31" value="Session Manager" style="shape=umlLifeline;perimeter=lifelinePerimeter;whiteSpace=wrap;html=1;container=1;dropTarget=0;collapsible=0;recursiveResize=0;outlineConnect=0;portConstraint=eastwest;newEdgeStyle={&quot;curved&quot;:0,&quot;rounded&quot;:0};fontSize=18;size=50;fillColor=#d5e8d4;strokeColor=#82b366;" parent="1" vertex="1">
          <mxGeometry x="274" y="80" width="140" height="780" as="geometry" />
        </mxCell>
        <mxCell id="uIkM0Dpdz_mQOi9VMkWr-32" value="Tracking Manager" style="shape=umlLifeline;perimeter=lifelinePerimeter;whiteSpace=wrap;html=1;container=1;dropTarget=0;collapsible=0;recursiveResize=0;outlineConnect=0;portConstraint=eastwest;newEdgeStyle={&quot;curved&quot;:0,&quot;rounded&quot;:0};fontSize=18;size=50;fillColor=#d5e8d4;strokeColor=#82b366;" parent="1" vertex="1">
          <mxGeometry x="440" y="80" width="140" height="780" as="geometry" />
        </mxCell>
        <mxCell id="uIkM0Dpdz_mQOi9VMkWr-33" value="Configuration&lt;div&gt;Manager&lt;/div&gt;" style="shape=umlLifeline;perimeter=lifelinePerimeter;whiteSpace=wrap;html=1;container=1;dropTarget=0;collapsible=0;recursiveResize=0;outlineConnect=0;portConstraint=eastwest;newEdgeStyle={&quot;curved&quot;:0,&quot;rounded&quot;:0};fontSize=18;size=50;fillColor=#d5e8d4;strokeColor=#82b366;" parent="1" vertex="1">
          <mxGeometry x="610" y="80" width="140" height="780" as="geometry" />
        </mxCell>
        <mxCell id="uIkM0Dpdz_mQOi9VMkWr-34" value="" style="endArrow=classic;html=1;rounded=0;snapToPoint=0;edgeStyle=orthogonalEdgeStyle;" parent="1" target="uIkM0Dpdz_mQOi9VMkWr-33" edge="1" source="uIkM0Dpdz_mQOi9VMkWr-33">
          <mxGeometry relative="1" as="geometry">
            <mxPoint x="690" y="161" as="sourcePoint" />
            <mxPoint x="860" y="160" as="targetPoint" />
            <Array as="points">
              <mxPoint x="760" y="161" />
              <mxPoint x="760" y="200" />
            </Array>
          </mxGeometry>
        </mxCell>
        <mxCell id="uIkM0Dpdz_mQOi9VMkWr-35" value="Create a&lt;div&gt;Profile&lt;/div&gt;" style="edgeLabel;resizable=0;html=1;;align=center;verticalAlign=middle;fontSize=18;labelBackgroundColor=none;" parent="uIkM0Dpdz_mQOi9VMkWr-34" connectable="0" vertex="1">
          <mxGeometry relative="1" as="geometry">
            <mxPoint x="40" y="-1" as="offset" />
          </mxGeometry>
        </mxCell>
        <mxCell id="uIkM0Dpdz_mQOi9VMkWr-36" value="" style="endArrow=classic;html=1;rounded=0;snapToPoint=0;" parent="1" target="uIkM0Dpdz_mQOi9VMkWr-31" edge="1">
          <mxGeometry relative="1" as="geometry">
            <mxPoint x="680" y="240" as="sourcePoint" />
            <mxPoint x="470" y="240" as="targetPoint" />
          </mxGeometry>
        </mxCell>
        <mxCell id="uIkM0Dpdz_mQOi9VMkWr-37" value="User Profile" style="edgeLabel;resizable=0;html=1;;align=center;verticalAlign=middle;fontSize=18;labelBackgroundColor=none;" parent="uIkM0Dpdz_mQOi9VMkWr-36" connectable="0" vertex="1">
          <mxGeometry relative="1" as="geometry">
            <mxPoint x="-102" y="-10" as="offset" />
          </mxGeometry>
        </mxCell>
        <mxCell id="uIkM0Dpdz_mQOi9VMkWr-38" value="" style="endArrow=classic;html=1;rounded=0;snapToPoint=0;" parent="1" edge="1">
          <mxGeometry relative="1" as="geometry">
            <mxPoint x="340" y="310" as="sourcePoint" />
            <mxPoint x="110" y="309.5" as="targetPoint" />
          </mxGeometry>
        </mxCell>
        <mxCell id="uIkM0Dpdz_mQOi9VMkWr-39" value="Connect to a Room (Profile)" style="edgeLabel;resizable=0;html=1;;align=center;verticalAlign=middle;fontSize=18;labelBackgroundColor=none;" parent="uIkM0Dpdz_mQOi9VMkWr-38" connectable="0" vertex="1">
          <mxGeometry relative="1" as="geometry">
            <mxPoint x="5" y="-10" as="offset" />
          </mxGeometry>
        </mxCell>
        <mxCell id="uIkM0Dpdz_mQOi9VMkWr-40" value="" style="endArrow=classic;html=1;rounded=0;snapToPoint=0;" parent="1" edge="1">
          <mxGeometry relative="1" as="geometry">
            <mxPoint x="110" y="350" as="sourcePoint" />
            <mxPoint x="-110" y="350" as="targetPoint" />
          </mxGeometry>
        </mxCell>
        <mxCell id="uIkM0Dpdz_mQOi9VMkWr-41" value="Connect a Client" style="edgeLabel;resizable=0;html=1;;align=center;verticalAlign=middle;fontSize=18;labelBackgroundColor=none;" parent="uIkM0Dpdz_mQOi9VMkWr-40" connectable="0" vertex="1">
          <mxGeometry relative="1" as="geometry">
            <mxPoint x="-30" y="-10" as="offset" />
          </mxGeometry>
        </mxCell>
        <mxCell id="uIkM0Dpdz_mQOi9VMkWr-42" value="" style="endArrow=classic;html=1;rounded=0;snapToPoint=0;" parent="1" target="uIkM0Dpdz_mQOi9VMkWr-31" edge="1">
          <mxGeometry relative="1" as="geometry">
            <mxPoint x="110" y="390" as="sourcePoint" />
            <mxPoint x="330" y="390" as="targetPoint" />
          </mxGeometry>
        </mxCell>
        <mxCell id="uIkM0Dpdz_mQOi9VMkWr-43" value="Update all clients (Profile)" style="edgeLabel;resizable=0;html=1;;align=center;verticalAlign=middle;fontSize=18;labelBackgroundColor=none;" parent="uIkM0Dpdz_mQOi9VMkWr-42" connectable="0" vertex="1">
          <mxGeometry relative="1" as="geometry">
            <mxPoint x="5" y="-10" as="offset" />
          </mxGeometry>
        </mxCell>
        <mxCell id="uIkM0Dpdz_mQOi9VMkWr-44" value="" style="endArrow=classic;html=1;rounded=0;snapToPoint=0;" parent="1" edge="1">
          <mxGeometry relative="1" as="geometry">
            <mxPoint x="510" y="480" as="sourcePoint" />
            <mxPoint x="343.5" y="480" as="targetPoint" />
          </mxGeometry>
        </mxCell>
        <mxCell id="uIkM0Dpdz_mQOi9VMkWr-45" value="Validate Image Tracking" style="edgeLabel;resizable=0;html=1;;align=center;verticalAlign=middle;fontSize=18;labelBackgroundColor=none;" parent="uIkM0Dpdz_mQOi9VMkWr-44" connectable="0" vertex="1">
          <mxGeometry relative="1" as="geometry">
            <mxPoint x="23" y="-10" as="offset" />
          </mxGeometry>
        </mxCell>
        <mxCell id="uIkM0Dpdz_mQOi9VMkWr-46" value="" style="endArrow=classic;html=1;rounded=0;snapToPoint=0;" parent="1" edge="1" target="uIkM0Dpdz_mQOi9VMkWr-31">
          <mxGeometry relative="1" as="geometry">
            <mxPoint x="107.5" y="520" as="sourcePoint" />
            <mxPoint x="274" y="520" as="targetPoint" />
          </mxGeometry>
        </mxCell>
        <mxCell id="uIkM0Dpdz_mQOi9VMkWr-47" value="Update Shared Origin" style="edgeLabel;resizable=0;html=1;;align=center;verticalAlign=middle;fontSize=18;labelBackgroundColor=none;" parent="uIkM0Dpdz_mQOi9VMkWr-46" connectable="0" vertex="1">
          <mxGeometry relative="1" as="geometry">
            <mxPoint x="15" y="-10" as="offset" />
          </mxGeometry>
        </mxCell>
        <mxCell id="uIkM0Dpdz_mQOi9VMkWr-48" value="" style="endArrow=classic;html=1;rounded=0;snapToPoint=0;" parent="1" edge="1">
          <mxGeometry relative="1" as="geometry">
            <mxPoint x="344" y="590" as="sourcePoint" />
            <mxPoint x="110" y="590" as="targetPoint" />
            <Array as="points">
              <mxPoint x="250.5" y="590" />
            </Array>
          </mxGeometry>
        </mxCell>
        <mxCell id="uIkM0Dpdz_mQOi9VMkWr-49" value="Set a Task" style="edgeLabel;resizable=0;html=1;;align=center;verticalAlign=middle;fontSize=18;labelBackgroundColor=none;" parent="uIkM0Dpdz_mQOi9VMkWr-48" connectable="0" vertex="1">
          <mxGeometry relative="1" as="geometry">
            <mxPoint x="-57" y="-10" as="offset" />
          </mxGeometry>
        </mxCell>
        <mxCell id="uIkM0Dpdz_mQOi9VMkWr-50" value="" style="endArrow=classic;html=1;rounded=0;snapToPoint=0;" parent="1" edge="1">
          <mxGeometry relative="1" as="geometry">
            <mxPoint x="110" y="630" as="sourcePoint" />
            <mxPoint x="344" y="630" as="targetPoint" />
          </mxGeometry>
        </mxCell>
        <mxCell id="uIkM0Dpdz_mQOi9VMkWr-51" value="Update all clients (Task)" style="edgeLabel;resizable=0;html=1;;align=center;verticalAlign=middle;fontSize=18;labelBackgroundColor=none;" parent="uIkM0Dpdz_mQOi9VMkWr-50" connectable="0" vertex="1">
          <mxGeometry relative="1" as="geometry">
            <mxPoint x="5" y="-10" as="offset" />
          </mxGeometry>
        </mxCell>
        <mxCell id="uIkM0Dpdz_mQOi9VMkWr-52" value="" style="endArrow=classic;html=1;rounded=0;snapToPoint=0;" parent="1" edge="1">
          <mxGeometry relative="1" as="geometry">
            <mxPoint x="344" y="680" as="sourcePoint" />
            <mxPoint x="110" y="680" as="targetPoint" />
            <Array as="points">
              <mxPoint x="250" y="680" />
            </Array>
          </mxGeometry>
        </mxCell>
        <mxCell id="uIkM0Dpdz_mQOi9VMkWr-53" value="Disconnect" style="edgeLabel;resizable=0;html=1;;align=center;verticalAlign=middle;fontSize=18;labelBackgroundColor=none;" parent="uIkM0Dpdz_mQOi9VMkWr-52" connectable="0" vertex="1">
          <mxGeometry relative="1" as="geometry">
            <mxPoint x="-57" y="-10" as="offset" />
          </mxGeometry>
        </mxCell>
        <mxCell id="uIkM0Dpdz_mQOi9VMkWr-54" value="" style="endArrow=classic;html=1;rounded=0;snapToPoint=0;" parent="1" edge="1">
          <mxGeometry relative="1" as="geometry">
            <mxPoint x="110" y="720" as="sourcePoint" />
            <mxPoint x="-110" y="720" as="targetPoint" />
            <Array as="points">
              <mxPoint x="30" y="720" />
            </Array>
          </mxGeometry>
        </mxCell>
        <mxCell id="uIkM0Dpdz_mQOi9VMkWr-55" value="Disconnect a Client" style="edgeLabel;resizable=0;html=1;;align=center;verticalAlign=middle;fontSize=18;labelBackgroundColor=none;" parent="uIkM0Dpdz_mQOi9VMkWr-54" connectable="0" vertex="1">
          <mxGeometry relative="1" as="geometry">
            <mxPoint x="-20" y="-10" as="offset" />
          </mxGeometry>
        </mxCell>
        <mxCell id="uIkM0Dpdz_mQOi9VMkWr-57" value="" style="endArrow=classic;html=1;rounded=0;snapToPoint=0;" parent="1" edge="1">
          <mxGeometry relative="1" as="geometry">
            <mxPoint x="110" y="750" as="sourcePoint" />
            <mxPoint x="344" y="750" as="targetPoint" />
          </mxGeometry>
        </mxCell>
        <mxCell id="uIkM0Dpdz_mQOi9VMkWr-58" value="Update all clients (Profile)" style="edgeLabel;resizable=0;html=1;;align=center;verticalAlign=middle;fontSize=18;labelBackgroundColor=none;" parent="uIkM0Dpdz_mQOi9VMkWr-57" connectable="0" vertex="1">
          <mxGeometry relative="1" as="geometry">
            <mxPoint x="5" y="-10" as="offset" />
          </mxGeometry>
        </mxCell>
        <mxCell id="uIkM0Dpdz_mQOi9VMkWr-59" value="" style="endArrow=classic;html=1;rounded=0;snapToPoint=0;" parent="1" edge="1">
          <mxGeometry relative="1" as="geometry">
            <mxPoint x="109.5" y="790" as="sourcePoint" />
            <mxPoint x="-110" y="790" as="targetPoint" />
            <Array as="points">
              <mxPoint x="30" y="790" />
            </Array>
          </mxGeometry>
        </mxCell>
        <mxCell id="uIkM0Dpdz_mQOi9VMkWr-60" value="Disconnect" style="edgeLabel;resizable=0;html=1;;align=center;verticalAlign=middle;fontSize=18;labelBackgroundColor=none;" parent="uIkM0Dpdz_mQOi9VMkWr-59" connectable="0" vertex="1">
          <mxGeometry relative="1" as="geometry">
            <mxPoint x="-49" y="-10" as="offset" />
          </mxGeometry>
        </mxCell>
        <mxCell id="uIkM0Dpdz_mQOi9VMkWr-61" value="" style="endArrow=classic;html=1;rounded=0;snapToPoint=0;" parent="1" edge="1">
          <mxGeometry relative="1" as="geometry">
            <mxPoint x="-110" y="830" as="sourcePoint" />
            <mxPoint x="343.5" y="830" as="targetPoint" />
          </mxGeometry>
        </mxCell>
        <mxCell id="uIkM0Dpdz_mQOi9VMkWr-62" value="Update Host" style="edgeLabel;resizable=0;html=1;;align=center;verticalAlign=middle;fontSize=18;labelBackgroundColor=none;" parent="uIkM0Dpdz_mQOi9VMkWr-61" connectable="0" vertex="1">
          <mxGeometry relative="1" as="geometry">
            <mxPoint x="163" y="-10" as="offset" />
          </mxGeometry>
        </mxCell>
        <mxCell id="DFUxsc5QTGZJCr-Tzfbp-4" value="" style="endArrow=classic;html=1;rounded=0;snapToPoint=0;" edge="1" parent="1">
          <mxGeometry relative="1" as="geometry">
            <mxPoint x="110" y="430" as="sourcePoint" />
            <mxPoint x="344" y="430" as="targetPoint" />
          </mxGeometry>
        </mxCell>
        <mxCell id="DFUxsc5QTGZJCr-Tzfbp-5" value="Update Image Tracking" style="edgeLabel;resizable=0;html=1;;align=center;verticalAlign=middle;fontSize=18;labelBackgroundColor=none;" connectable="0" vertex="1" parent="DFUxsc5QTGZJCr-Tzfbp-4">
          <mxGeometry relative="1" as="geometry">
            <mxPoint x="13" y="-10" as="offset" />
          </mxGeometry>
        </mxCell>
        <mxCell id="DFUxsc5QTGZJCr-Tzfbp-6" value="" style="endArrow=classic;html=1;rounded=0;snapToPoint=0;" edge="1" parent="1">
          <mxGeometry relative="1" as="geometry">
            <mxPoint x="343.5" y="560" as="sourcePoint" />
            <mxPoint x="509.5" y="560" as="targetPoint" />
          </mxGeometry>
        </mxCell>
        <mxCell id="DFUxsc5QTGZJCr-Tzfbp-7" value="Update Shared Origin" style="edgeLabel;resizable=0;html=1;;align=center;verticalAlign=middle;fontSize=18;labelBackgroundColor=none;" connectable="0" vertex="1" parent="DFUxsc5QTGZJCr-Tzfbp-6">
          <mxGeometry relative="1" as="geometry">
            <mxPoint x="-16" y="-10" as="offset" />
          </mxGeometry>
        </mxCell>
        <mxCell id="DFUxsc5QTGZJCr-Tzfbp-8" value="" style="endArrow=classic;html=1;rounded=0;snapToPoint=0;edgeStyle=orthogonalEdgeStyle;" edge="1" parent="1">
          <mxGeometry relative="1" as="geometry">
            <mxPoint x="510" y="585" as="sourcePoint" />
            <mxPoint x="510" y="624" as="targetPoint" />
            <Array as="points">
              <mxPoint x="590" y="585" />
              <mxPoint x="590" y="624" />
            </Array>
          </mxGeometry>
        </mxCell>
        <mxCell id="DFUxsc5QTGZJCr-Tzfbp-9" value="Update Tracking&lt;div&gt;Objects&lt;/div&gt;" style="edgeLabel;resizable=0;html=1;;align=center;verticalAlign=middle;fontSize=18;labelBackgroundColor=none;" connectable="0" vertex="1" parent="DFUxsc5QTGZJCr-Tzfbp-8">
          <mxGeometry relative="1" as="geometry">
            <mxPoint x="70" y="-1" as="offset" />
          </mxGeometry>
        </mxCell>
      </root>
    </mxGraphModel>
  </diagram>
</mxfile>
